<svg xmlns="http://www.w3.org/2000/svg" viewBox="0 0 1237.17 77.58"><defs><style>.cls-1{fill:#231f20;}</style></defs><title>logo-black</title><g id="Layer_2" data-name="Layer 2"><g id="Layer_1-2" data-name="Layer 1"><path class="cls-1" d="M0,1.28H23.18V57.83H59.36V76.3H0Z"/><path class="cls-1" d="M75.68,38.84q0-18.37,10.23-28.61T114.41,0q18.73,0,28.86,10.06t10.13,28.17q0,13.15-4.43,21.57a31.56,31.56,0,0,1-12.79,13.1q-8.37,4.68-20.85,4.68-12.69,0-21-4A31.62,31.62,0,0,1,80.84,60.74Q75.67,52,75.68,38.84Zm23.18.1q0,11.36,4.22,16.32t11.49,5q7.47,0,11.57-4.86t4.09-17.45q0-10.59-4.27-15.48t-11.59-4.89a14.08,14.08,0,0,0-11.26,5Q98.86,27.48,98.86,38.94Z"/><path class="cls-1" d="M164.5,1.28h24.23l16.88,54,16.67-54h23.53L218,76.3H192.84Z"/><path class="cls-1" d="M263.82,1.28h62.13v16H287.05V29.22h36.08v15.3H287.05V59.31h40v17H263.82Z"/><path class="cls-1" d="M360.7,1.28h25.75l15.11,25.31L416.71,1.28h25.61l-29.17,43.6V76.3H389.92V44.88Z"/><path class="cls-1" d="M451.06,38.84q0-18.37,10.23-28.61T489.8,0q18.73,0,28.86,10.06t10.13,28.17q0,13.15-4.43,21.57a31.56,31.56,0,0,1-12.79,13.1q-8.37,4.68-20.85,4.68-12.69,0-21-4a31.62,31.62,0,0,1-13.48-12.79Q451.06,52,451.06,38.84Zm23.18.1q0,11.36,4.22,16.32t11.49,5q7.47,0,11.57-4.86t4.09-17.45q0-10.59-4.27-15.48t-11.59-4.89a14.08,14.08,0,0,0-11.26,5Q474.24,27.48,474.24,38.94Z"/><path class="cls-1" d="M600.58,1.28h23.13V46a37.63,37.63,0,0,1-2.07,12.55,27.12,27.12,0,0,1-6.5,10.33,25.94,25.94,0,0,1-9.29,6.21,46.76,46.76,0,0,1-16.22,2.51,102.07,102.07,0,0,1-11.95-.77,31.28,31.28,0,0,1-10.82-3,27.1,27.1,0,0,1-8-6.47A23.74,23.74,0,0,1,554,58.66,44.79,44.79,0,0,1,551.81,46V1.28h23.13V47q0,6.14,3.4,9.59t9.44,3.45q6,0,9.39-3.4t3.4-9.64Z"/><path class="cls-1" d="M649.85,76.3v-75h38.64q10.75,0,16.43,1.84A17.49,17.49,0,0,1,714.07,10a20.72,20.72,0,0,1,3.48,12.15,20.88,20.88,0,0,1-2.66,10.77,20.8,20.8,0,0,1-7.32,7.34,28,28,0,0,1-8.14,3,23.15,23.15,0,0,1,6,2.77,23.41,23.41,0,0,1,3.71,3.94,29.49,29.49,0,0,1,3.25,4.66L723.64,76.3H697.45L685.06,53.37q-2.35-4.45-4.2-5.78a9.73,9.73,0,0,0-5.68-1.74h-2V76.3Zm23.28-44.62h9.77a34.88,34.88,0,0,0,6.14-1,6.13,6.13,0,0,0,3.76-2.35A6.93,6.93,0,0,0,694.27,24a6.89,6.89,0,0,0-2.3-5.58q-2.3-1.95-8.65-1.95H673.13Z"/><path class="cls-1" d="M759.77,1.28H783V57.83h36.18V76.3H759.77Z"/><path class="cls-1" d="M841.08,1.28h23.23v75H841.08Z"/><path class="cls-1" d="M891.57,1.28h21.65l28.25,41.51V1.28h21.85v75H941.47L913.37,35.11V76.3h-21.8Z"/><path class="cls-1" d="M989.15,1.28h62.13v16h-38.89V29.22h36.08v15.3h-36.08V59.31h40v17H989.15Z"/><path class="cls-1" d="M1075.52,1.28h21.65l28.25,41.51V1.28h21.85v75h-21.85l-28.09-41.19V76.3h-21.8Z"/><path class="cls-1" d="M1169.11,51.48l22.06-1.38q.72,5.37,2.92,8.19,3.58,4.56,10.23,4.55,5,0,7.65-2.33a7,7,0,0,0,2.69-5.4,6.89,6.89,0,0,0-2.56-5.22q-2.56-2.3-11.87-4.35-15.25-3.43-21.75-9.11A18.32,18.32,0,0,1,1171.93,22,19.67,19.67,0,0,1,1175.28,11a22.23,22.23,0,0,1,10.08-8.09Q1192.09,0,1203.81,0q14.38,0,21.93,5.35t9,17l-21.85,1.28q-.87-5.07-3.66-7.37t-7.7-2.3q-4,0-6.09,1.71a5.25,5.25,0,0,0-2,4.17,4.17,4.17,0,0,0,1.69,3.22q1.64,1.48,7.78,2.76,15.2,3.28,21.77,6.63a22.9,22.9,0,0,1,9.57,8.32,21.08,21.08,0,0,1,3,11.1,23.78,23.78,0,0,1-4,13.31A25,25,0,0,1,1222,74.43q-7.17,3.15-18.07,3.15-19.14,0-26.51-7.37A29.07,29.07,0,0,1,1169.11,51.48Z"/></g></g></svg>