<svg xmlns="http://www.w3.org/2000/svg" viewBox="0 0 510.72 512"><defs><style>.cls-1{fill:#010101;}</style></defs><title>instagram</title><g id="Layer_2" data-name="Layer 2"><g id="Layer_1-2" data-name="Layer 1"><path class="cls-1" d="M358.67,512H152C68.21,512,0,443.79,0,360V152C0,68.21,68.21,0,152,0H358.67c83.84,0,152,68.21,152,152V360C510.72,443.79,442.51,512,358.67,512ZM152,20.4C79.46,20.4,20.4,79.46,20.4,152V360C20.4,432.54,79.46,491.6,152,491.6H358.67c72.59,0,131.65-59.06,131.65-131.65V152c0-72.59-59.06-131.65-131.65-131.65ZM358.67,453.71H152A93.86,93.86,0,0,1,58.29,360V152A93.86,93.86,0,0,1,152,58.29H358.67A93.86,93.86,0,0,1,452.43,152V360A93.86,93.86,0,0,1,358.67,453.71ZM152,78.69A73.44,73.44,0,0,0,78.69,152V360A73.44,73.44,0,0,0,152,433.31H358.67A73.44,73.44,0,0,0,432,360V152a73.44,73.44,0,0,0-73.36-73.36H152Z"/><path class="cls-1" d="M255.36,387.82c-72.69,0-131.82-59.13-131.82-131.82s59.13-131.82,131.82-131.82S387.18,183.31,387.18,256,328,387.82,255.36,387.82Zm0-243.24A111.42,111.42,0,1,0,366.78,256,111.55,111.55,0,0,0,255.36,144.58Zm0,186.38a75,75,0,1,1,75-75A75,75,0,0,1,255.36,331Zm0-129.52A54.56,54.56,0,1,0,309.92,256,54.62,54.62,0,0,0,255.36,201.44Z"/><path class="cls-1" d="M379.84,163.19a31.67,31.67,0,1,1,31.67-31.67A31.71,31.71,0,0,1,379.84,163.19Zm0-42.95a11.27,11.27,0,1,0,11.27,11.27A11.29,11.29,0,0,0,379.84,120.24Z"/><path class="cls-1" d="M239,483.44H143.17a10.2,10.2,0,1,1,0-20.4H239a10.2,10.2,0,0,1,0,20.4Z"/><path class="cls-1" d="M277.8,483.44h-6.12a10.2,10.2,0,0,1,0-20.4h6.12a10.2,10.2,0,1,1,0,20.4Z"/></g></g></svg>