<svg xmlns="http://www.w3.org/2000/svg" viewBox="0 0 185.66 236.83"><title>pinterest</title><g id="Layer_2" data-name="Layer 2"><g id="Layer_1-2" data-name="Layer 1"><path d="M44.47,236.83A6.77,6.77,0,0,1,37.69,231l-.08-.56c-1.63-11.17-3.73-32.61.58-50.79l16.34-69.24a57.83,57.83,0,0,1-3.89-21.07c0-21.77,13.27-38.83,30.22-38.83,13.57,0,22.69,9.92,22.69,24.68,0,8.36-3.18,18.68-6.55,29.61-1.81,5.88-3.69,11.95-5.07,17.75a14.79,14.79,0,0,0,2.57,12.84,16.31,16.31,0,0,0,13,5.89c20.25,0,36.12-28.13,36.12-64,0-27.59-18.78-44.73-49-44.73C56.3,32.49,35.64,62,35.64,89.68c0,9.22,2.34,16.27,7.37,22.19,3.07,3.66,4.37,6.5,2.92,11.91-.35,1.32-.94,3.63-1.49,5.83l-1.17,4.6a9.74,9.74,0,0,1-13.42,6.71C11.16,133.29,0,112.92,0,86.43,0,43.95,36.71,0,98.13,0c54.79,0,87.52,40.52,87.52,79.69C185.66,134.35,154,174,110.3,174,99.4,174,88.49,170,81,163.63c-2.36,9.32-5.7,22.46-6.71,26.16-5.09,18.45-18.55,36.93-24.11,44a7.13,7.13,0,0,1-5.75,3ZM80.85,60.76c-11.18,0-19.94,12.54-19.94,28.55a45.84,45.84,0,0,0,3.61,18.32l.8,1.65-.41,1.8L48.19,182c-2.48,10.47-2.95,24.17-1.39,39.17,6.08-8.56,14.13-21.47,17.61-34.1,1.55-5.67,9-35.36,9.11-35.66l3.29-13,6.25,11.9c3.48,6.61,14.61,13.46,27.23,13.46,38.31,0,65.07-34.56,65.07-84,0-34.12-28.89-69.41-77.24-69.41-60.6,0-87.85,44.53-87.85,76.15,0,22.31,8.41,38.62,23.1,44.81l1.08-4.16c.57-2.25,1.17-4.62,1.53-6a6.79,6.79,0,0,0,.26-1.28c0,.07-.21-.29-1.1-1.34-6.59-7.75-9.8-17.19-9.8-28.82,0-38.46,29.75-67.47,69.21-67.47,36,0,59.29,21.59,59.29,55,0,42.38-19.95,74.33-46.4,74.33a26.5,26.5,0,0,1-21-9.79,24.88,24.88,0,0,1-4.51-21.6c1.45-6.14,3.38-12.38,5.25-18.42,3.13-10.16,6.1-19.76,6.1-26.57,0-4.33-1.22-14.39-12.42-14.39Zm0,0"/></g></g></svg>