<svg xmlns="http://www.w3.org/2000/svg" viewBox="0 0 272.89 214.16"><title>twitter</title><g id="Layer_2" data-name="Layer 2"><g id="Layer_1-2" data-name="Layer 1"><path d="M92.32,214.16A147.73,147.73,0,0,1,16.49,193L0,183.1l19.22.32c.62,0,1.63.08,3.2.08a115.54,115.54,0,0,0,54.52-14.66A58.86,58.86,0,0,1,38,131.43l-3-9,8.25,2.14A58.48,58.48,0,0,1,20.43,81.41L20,73.08l7.64,3.34q2.09.92,4.25,1.62C21,62.84,14.44,39.36,28.14,14.41l3.77-6.87,4.8,6.2a129.66,129.66,0,0,0,94.22,50.32c-.23-2.31-.38-4.43-.38-5.09,0-27.58,21-56.1,56.1-56.1A56.19,56.19,0,0,1,226,19c14-3.29,27.4-11.46,27.55-11.55L265.73,0l-4.59,13.51a56,56,0,0,1-9.85,17.63c2.35-.76,4.65-1.64,7-2.68l14.59-7.12L266.77,34.5a56.3,56.3,0,0,1-24,25.58c2.3,36-12.5,76.16-39.13,105.65-19.76,21.9-55,48.07-110.41,48.42Zm-54-21.55a136.44,136.44,0,0,0,54,11.26h.88c51.7-.33,84.47-24.67,102.85-45,25.62-28.39,39.52-67.2,36.25-101.3l-.34-3.62,3.29-1.53A46,46,0,0,0,249,42.47a114.48,114.48,0,0,1-14.48,2.59l-3.94.48-3.07-7.79L231.13,35A46.16,46.16,0,0,0,244,23.75a92.38,92.38,0,0,1-18.78,5.94l-2.82.52-1.93-2.12a45.9,45.9,0,0,0-33.86-15c-28.68,0-45.82,23.3-45.82,45.82,0,1.36.68,7.56.92,9.16l2.34,6.64-7.43-.16A139.82,139.82,0,0,1,33.86,26.45c-10.28,27,7,48.58,15.23,55l12.06,9.46-15.32-.27a58.14,58.14,0,0,1-14-1.95,48.23,48.23,0,0,0,36.84,36.53l20.29,4.36-20,5.62A43.61,43.61,0,0,1,57.2,136.7c-2,0-3.94-.11-5.72-.27A48.5,48.5,0,0,0,91,160.88l14.46.71-11.66,8.57a122.86,122.86,0,0,1-55.54,22.46Zm0,0"/></g></g></svg>